<svg width="128" height="128" viewBox="0 0 128 128" xmlns="http://www.w3.org/2000/svg">
  <defs>
    <linearGradient id="grad1" x1="0%" y1="0%" x2="100%" y2="100%">
      <stop offset="0%" style="stop-color:#667eea;stop-opacity:1" />
      <stop offset="100%" style="stop-color:#764ba2;stop-opacity:1" />
    </linearGradient>
  </defs>
  
  <!-- 背景圆形 -->
  <circle cx="64" cy="64" r="60" fill="url(#grad1)" stroke="#fff" stroke-width="4"/>
  
  <!-- 建筑图标 -->
  <g fill="#fff" transform="translate(32, 32)">
    <!-- 主建筑 -->
    <rect x="8" y="32" width="48" height="32" rx="2"/>
    
    <!-- 窗户 -->
    <rect x="16" y="40" width="8" height="8" rx="1"/>
    <rect x="32" y="40" width="8" height="8" rx="1"/>
    <rect x="16" y="52" width="8" height="8" rx="1"/>
    <rect x="32" y="52" width="8" height="8" rx="1"/>
    
    <!-- 门 -->
    <rect x="24" y="56" width="8" height="8" rx="1"/>
    
    <!-- 屋顶 -->
    <polygon points="8,32 32,16 56,32"/>
    
    <!-- 天线 -->
    <line x1="32" y1="16" x2="32" y2="8" stroke="#fff" stroke-width="2"/>
    <circle cx="32" cy="8" r="2" fill="#fff"/>
  </g>
  
  <!-- 放大镜 -->
  <g transform="translate(70, 20)">
    <circle cx="12" cy="12" r="8" fill="none" stroke="#fff" stroke-width="3"/>
    <line x1="18" y1="18" x2="24" y2="24" stroke="#fff" stroke-width="3" stroke-linecap="round"/>
  </g>
  
  <!-- 文字 "P" -->
  <text x="64" y="110" text-anchor="middle" fill="#fff" font-family="Arial, sans-serif" font-size="16" font-weight="bold">P</text>
</svg> 